<?xml version="1.0" standalone="no"?>
<!DOCTYPE svg PUBLIC "-//W3C//DTD SVG 20010904//EN"
 "http://www.w3.org/TR/2001/REC-SVG-20010904/DTD/svg10.dtd">
<svg version="1.0" xmlns="http://www.w3.org/2000/svg"
 width="318.000000pt" height="358.000000pt" viewBox="0 0 318.000000 358.000000"
 preserveAspectRatio="xMidYMid meet">
<metadata>
Created by potrace 1.16, written by Peter Selinger 2001-2019
</metadata>
<g transform="translate(0.000000,358.000000) scale(0.100000,-0.100000)"
fill="#000000" stroke="none">
<path d="M1169 2788 c-41 -24 -109 -60 -150 -82 -42 -21 -110 -69 -153 -106
-110 -98 -542 -406 -634 -454 -18 -9 -32 -22 -32 -30 0 -7 28 -37 62 -67 150
-130 652 -651 755 -783 18 -23 41 -53 53 -68 28 -36 43 -36 261 2 301 52 343
60 369 70 69 25 237 52 357 57 105 4 135 9 146 22 17 20 97 152 128 211 13 25
38 71 56 102 36 61 116 245 139 318 32 103 12 150 -154 366 -48 61 -127 164
-175 227 -48 63 -102 129 -119 146 l-32 31 -395 1 c-218 1 -409 4 -426 8 l-30
6 38 23 c21 12 35 27 32 32 -9 15 -15 13 -96 -32z m860 -78 c25 -13 139 -150
250 -300 50 -69 110 -147 132 -175 51 -65 99 -149 99 -175 0 -21 -37 -132 -63
-191 -8 -19 -27 -61 -41 -93 -27 -61 -144 -270 -202 -362 l-33 -51 -143 -5
c-121 -5 -169 -12 -313 -46 -213 -51 -362 -79 -500 -94 l-108 -12 -16 24 c-23
35 -79 99 -201 230 -59 63 -135 147 -169 185 -35 39 -154 157 -264 263 -111
107 -203 197 -204 200 -1 4 55 45 125 92 203 135 452 318 521 382 41 38 94 74
145 99 l80 39 444 0 c263 0 451 -4 461 -10z"/>
</g>
</svg>
